<?xml version="1.0" encoding="utf-8"?><!-- Uploaded to: SVG Repo, www.svgrepo.com, Generator: SVG Repo Mixer Tools -->
<svg width="800px" height="800px" viewBox="0 0 24 24" fill="none" xmlns="http://www.w3.org/2000/svg">
<path fill-rule="evenodd" clip-rule="evenodd" d="M8.71454 16.826C8.7177 17.7092 8.20137 18.5073 7.40665 18.8476C6.61193 19.1878 5.6956 19.0031 5.08554 18.3797C4.47547 17.7563 4.29202 16.8172 4.62085 16.0008C4.94968 15.1845 5.72591 14.652 6.58709 14.652C7.15029 14.6509 7.69084 14.8794 8.08981 15.2871C8.48879 15.6948 8.71351 16.2483 8.71454 16.826Z" stroke="#000000" stroke-width="1.5" stroke-linecap="round" stroke-linejoin="round"/>
<path fill-rule="evenodd" clip-rule="evenodd" d="M19.1636 16.826C19.1667 17.7092 18.6504 18.5073 17.8557 18.8476C17.061 19.1878 16.1446 19.0031 15.5346 18.3797C14.9245 17.7563 14.7411 16.8172 15.0699 16.0008C15.3987 15.1845 16.1749 14.652 17.0361 14.652C17.5993 14.6509 18.1399 14.8794 18.5388 15.2871C18.9378 15.6948 19.1625 16.2483 19.1636 16.826Z" stroke="#000000" stroke-width="1.5" stroke-linecap="round" stroke-linejoin="round"/>
<path d="M2.61096 9.99042C2.46815 10.3792 2.66758 10.8102 3.05639 10.953C3.44521 11.0958 3.87618 10.8964 4.01899 10.5076L2.61096 9.99042ZM4.0628 8.213L3.36486 7.93844C3.36278 7.94374 3.36075 7.94907 3.35879 7.95442L4.0628 8.213ZM9.79678 5.75C10.211 5.75 10.5468 5.41421 10.5468 5C10.5468 4.58579 10.211 4.25 9.79678 4.25V5.75ZM3.31498 10.999C3.72919 10.999 4.06498 10.6632 4.06498 10.249C4.06498 9.83479 3.72919 9.499 3.31498 9.499V10.999ZM2.0387 10.249L2.033 10.999H2.0387V10.249ZM1.28976 10.5605L1.82287 11.0881L1.82287 11.0881L1.28976 10.5605ZM0.974976 11.324L0.224976 11.3186V11.324H0.974976ZM0.224976 13C0.224976 13.4142 0.560762 13.75 0.974976 13.75C1.38919 13.75 1.72498 13.4142 1.72498 13H0.224976ZM3.31498 9.499C2.90076 9.499 2.56498 9.83479 2.56498 10.249C2.56498 10.6632 2.90076 10.999 3.31498 10.999V9.499ZM9.79678 10.999C10.211 10.999 10.5468 10.6632 10.5468 10.249C10.5468 9.83479 10.211 9.499 9.79678 9.499V10.999ZM17.5236 10.5076C17.6664 10.8964 18.0974 11.0958 18.4862 10.953C18.875 10.8102 19.0744 10.3792 18.9316 9.99042L17.5236 10.5076ZM17.4798 8.213L18.1838 7.95442C18.1818 7.94907 18.1798 7.94374 18.1777 7.93844L17.4798 8.213ZM9.79678 4.25C9.38256 4.25 9.04678 4.58579 9.04678 5C9.04678 5.41421 9.38256 5.75 9.79678 5.75V4.25ZM18.2276 10.999C18.6418 10.999 18.9776 10.6632 18.9776 10.249C18.9776 9.83479 18.6418 9.499 18.2276 9.499V10.999ZM9.79678 9.499C9.38256 9.499 9.04678 9.83479 9.04678 10.249C9.04678 10.6632 9.38256 10.999 9.79678 10.999V9.499ZM18.2276 9.499C17.8134 9.499 17.4776 9.83479 17.4776 10.249C17.4776 10.6632 17.8134 10.999 18.2276 10.999V9.499ZM21.3622 10.249L21.3622 10.999L21.3672 10.999L21.3622 10.249ZM22.425 11.324L23.175 11.324L23.175 11.3186L22.425 11.324ZM21.675 13C21.675 13.4142 22.0108 13.75 22.425 13.75C22.8392 13.75 23.175 13.4142 23.175 13H21.675ZM14.9087 17.576C15.3229 17.576 15.6587 17.2402 15.6587 16.826C15.6587 16.4118 15.3229 16.076 14.9087 16.076V17.576ZM8.71453 16.076C8.30031 16.076 7.96453 16.4118 7.96453 16.826C7.96453 17.2402 8.30031 17.576 8.71453 17.576V16.076ZM19.1636 16.076C18.7494 16.076 18.4136 16.4118 18.4136 16.826C18.4136 17.2402 18.7494 17.576 19.1636 17.576V16.076ZM21.3613 16.826L21.367 16.076H21.3613V16.826ZM22.1102 16.5145L21.5771 15.9869L21.5771 15.9869L22.1102 16.5145ZM22.425 15.751L23.175 15.7564V15.751H22.425ZM23.175 13C23.175 12.5858 22.8392 12.25 22.425 12.25C22.0108 12.25 21.675 12.5858 21.675 13H23.175ZM4.45963 17.576C4.87384 17.576 5.20963 17.2402 5.20963 16.826C5.20963 16.4118 4.87384 16.076 4.45963 16.076V17.576ZM2.0387 16.826L2.0387 16.076L2.033 16.076L2.0387 16.826ZM0.974976 15.751L0.224956 15.751L0.224995 15.7564L0.974976 15.751ZM1.72498 13C1.72498 12.5858 1.38919 12.25 0.974976 12.25C0.560762 12.25 0.224976 12.5858 0.224976 13H1.72498ZM10.5468 5C10.5468 4.58579 10.211 4.25 9.79678 4.25C9.38256 4.25 9.04678 4.58579 9.04678 5H10.5468ZM9.04678 10.249C9.04678 10.6632 9.38256 10.999 9.79678 10.999C10.211 10.999 10.5468 10.6632 10.5468 10.249H9.04678ZM0.974976 12.25C0.560762 12.25 0.224976 12.5858 0.224976 13C0.224976 13.4142 0.560762 13.75 0.974976 13.75V12.25ZM2.91815 13.75C3.33236 13.75 3.66815 13.4142 3.66815 13C3.66815 12.5858 3.33236 12.25 2.91815 12.25V13.75ZM22.425 13.75C22.8392 13.75 23.175 13.4142 23.175 13C23.175 12.5858 22.8392 12.25 22.425 12.25V13.75ZM20.3999 12.25C19.9857 12.25 19.6499 12.5858 19.6499 13C19.6499 13.4142 19.9857 13.75 20.3999 13.75V12.25ZM4.01899 10.5076L4.76681 8.47158L3.35879 7.95442L2.61096 9.99042L4.01899 10.5076ZM4.76074 8.48756C5.12559 7.5601 5.49128 6.87863 5.94824 6.42712C6.37329 6.00714 6.91377 5.75 7.74245 5.75V4.25C6.53923 4.25 5.6138 4.64886 4.89396 5.36013C4.20602 6.03987 3.74784 6.9649 3.36486 7.93844L4.76074 8.48756ZM7.74245 5.75H9.79678V4.25H7.74245V5.75ZM3.31498 9.499H2.0387V10.999H3.31498V9.499ZM2.0444 9.49902C1.55922 9.49533 1.09635 9.6897 0.756637 10.033L1.82287 11.0881C1.88214 11.0282 1.95808 10.9984 2.033 10.999L2.0444 9.49902ZM0.756637 10.033C0.41756 10.3757 0.22844 10.8385 0.224995 11.3186L1.72496 11.3294C1.72563 11.235 1.76297 11.1486 1.82287 11.0881L0.756637 10.033ZM0.224976 11.324V13H1.72498V11.324H0.224976ZM3.31498 10.999H9.79678V9.499H3.31498V10.999ZM18.9316 9.99042L18.1838 7.95442L16.7758 8.47158L17.5236 10.5076L18.9316 9.99042ZM18.1777 7.93844C17.7947 6.9649 17.3366 6.03987 16.6486 5.36013C15.9288 4.64886 15.0033 4.25 13.8001 4.25V5.75C14.6288 5.75 15.1693 6.00714 15.5943 6.42712C16.0513 6.87863 16.417 7.5601 16.7818 8.48756L18.1777 7.93844ZM13.8001 4.25H9.79678V5.75H13.8001V4.25ZM18.2276 9.499H9.79678V10.999H18.2276V9.499ZM18.2276 10.999H21.3622V9.499H18.2276V10.999ZM21.3672 10.999C21.5182 10.998 21.6735 11.1277 21.675 11.3294L23.175 11.3186C23.1678 10.3248 22.3719 9.49226 21.3572 9.49902L21.3672 10.999ZM21.675 11.324V13H23.175V11.324H21.675ZM14.9087 16.076H8.71453V17.576H14.9087V16.076ZM19.1636 17.576H21.3613V16.076H19.1636V17.576ZM21.3555 17.576C21.8407 17.5797 22.3036 17.3853 22.6433 17.042L21.5771 15.9869C21.5178 16.0468 21.4419 16.0766 21.367 16.076L21.3555 17.576ZM22.6433 17.042C22.9824 16.6993 23.1715 16.2365 23.175 15.7564L21.675 15.7456C21.6743 15.84 21.637 15.9264 21.5771 15.9869L22.6433 17.042ZM23.175 15.751V13H21.675V15.751H23.175ZM4.45963 16.076H2.0387V17.576H4.45963V16.076ZM2.033 16.076C1.95808 16.0766 1.88214 16.0468 1.82287 15.9869L0.756638 17.042C1.09635 17.3853 1.55922 17.5797 2.0444 17.576L2.033 16.076ZM1.82287 15.9869C1.76297 15.9264 1.72563 15.84 1.72496 15.7456L0.224995 15.7564C0.22844 16.2365 0.41756 16.6993 0.756638 17.042L1.82287 15.9869ZM1.72498 15.751V13H0.224976V15.751H1.72498ZM9.04678 5V10.249H10.5468V5H9.04678ZM0.974976 13.75H2.91815V12.25H0.974976V13.75ZM22.425 12.25H20.3999V13.75H22.425V12.25Z" fill="#000000"/>
</svg>